<svg width="92" height="92" viewBox="0 0 92 92" fill="none" xmlns="http://www.w3.org/2000/svg">
<path fill-rule="evenodd" clip-rule="evenodd" d="M32.1395 13.7491L32.1346 13.7406C31.6586 12.9147 31.1792 12.083 30.6897 11.2342C35.1179 9.22075 39.6496 8.16236 44.3581 7.94782C54.1014 7.50444 62.7541 10.5032 70.3733 16.4515C71.1567 15.9652 75.604 11.4774 75.9161 10.8417C70.1089 6.01697 63.5502 2.67494 56.1332 1.08894C45.9615 -1.08505 36.1211 -0.00759111 26.6818 4.35469C21.7489 6.63516 17.3684 9.73087 13.5103 13.7149C14.458 14.5109 15.3851 15.2899 16.3024 16.0608L16.3053 16.0632L16.3102 16.0673C17.3938 16.9779 18.4639 17.8771 19.5387 18.7796C19.9221 18.4508 20.2933 18.118 20.6614 17.7879C21.6845 16.8704 22.6832 15.9747 23.8507 15.2501L25.4167 17.966L25.4176 17.9677C26.125 19.1945 26.8283 20.4142 27.5385 21.6465C24.1246 24.3227 21.4145 27.4931 19.3445 31.2165C17.284 34.9241 16.0739 38.897 15.6806 43.0988C15.2873 47.3021 15.6885 51.4404 17.0802 55.5833L19.221 54.5936C20.9188 53.8086 22.5759 53.0424 24.2488 52.2699C22.4336 45.2791 23.4351 38.8287 27.5258 32.9837C31.61 27.1466 37.3615 24.016 44.4393 23.1896C44.5502 21.9005 44.6596 20.6365 44.7691 19.3706L44.7695 19.3659C44.8816 18.0709 44.9938 16.7739 45.1081 15.4455C41.2865 15.4042 37.8296 16.399 34.387 17.6466C33.6288 16.3328 32.8883 15.0482 32.1395 13.7491ZM74.6074 80.3184L75.1907 81.1388C81.042 76.2919 85.4221 70.4953 88.315 63.6381C92.5772 53.5375 93.1239 43.1805 90.0492 32.6715C88.2465 26.5108 85.2212 20.9849 81.085 16.2219L80.9103 16.3955L80.8952 16.4105L80.8736 16.432C79.0585 18.2361 77.3028 19.9811 75.4999 21.7716C75.7008 22.0415 75.9088 22.3136 76.1202 22.5902C76.9689 23.7005 77.8727 24.8829 78.5937 26.2845C77.3502 26.864 76.1324 27.431 74.914 27.9982L74.8718 28.0178L74.85 28.028L74.811 28.0461L74.7888 28.0565C73.8391 28.4986 72.8885 28.9412 71.9247 29.3902C69.6103 25.9188 66.7939 22.9983 63.4068 20.6066C59.6515 17.9536 53.5739 15.7771 52.1091 15.986C52.0688 16.4094 52.0277 16.8331 51.9866 17.2573C51.7817 19.3686 51.5758 21.4906 51.4683 23.6378C57.3611 25.2603 61.942 28.5275 65.1729 33.5548C68.4053 38.5885 69.3617 44.1002 68.3496 50.0678C69.6765 50.5497 70.9938 51.0285 72.3211 51.5109C73.4699 51.9285 74.6262 52.3487 75.8027 52.7761C77.1464 47.2217 76.8452 41.8651 75.2688 36.5323C76.46 35.98 77.6234 35.4403 78.7851 34.9014L78.8393 34.8763C79.8839 34.3917 80.9273 33.9076 81.9887 33.4155C83.4918 37.7764 84.2202 42.1928 84.0545 46.7199C83.6448 57.9269 79.0926 67.2297 70.6336 74.7264C71.9759 76.6167 73.2708 78.4381 74.6074 80.3184ZM47.3859 76.8422C35.6529 76.8485 26.5705 72.1305 19.9441 62.4365C22.0594 61.4047 24.1022 60.4801 26.1823 59.5387L26.1824 59.5387C26.5127 59.3892 26.8439 59.2393 27.1765 59.0885C32.1013 65.7243 38.6814 69.2735 47.0015 68.9425C55.3009 68.6115 61.5398 64.5413 65.9925 57.5C67.5205 58.0513 69.051 58.6033 70.5832 59.1559L73.3429 60.1512C71.7832 64.0377 65.7516 72.1575 55.202 75.4944C55.4084 76.6539 55.6147 77.8157 55.8231 78.9888L55.8271 79.0113C56.0458 80.2423 56.2667 81.4859 56.4922 82.7527C59.4394 81.9307 62.1235 80.7762 64.7788 79.2922C65.46 80.252 66.1339 81.202 66.8099 82.155L66.8202 82.1695C67.6521 83.3423 68.4872 84.5197 69.3431 85.7253C66.0818 87.7192 62.6705 89.1256 59.1093 90.1693C53.5641 91.7942 47.9106 92.3469 41.997 91.7895L42.5333 88.7349C42.8036 87.1957 43.0713 85.6714 43.3431 84.121H48.684C48.504 83.1112 48.3267 82.1174 48.1503 81.1287C47.8953 79.6998 47.6423 78.2818 47.3859 76.8422ZM14.5688 24.165C12.5965 22.5142 10.6193 20.8588 8.59905 19.1668C0.680883 29.5453 -3.22705 46.5205 3.27818 62.763C9.44617 78.1556 23.2302 87.5923 34.6967 90.0834C35.181 87.5685 35.6381 85.0551 36.0281 82.5227C23.633 78.5632 14.7734 70.8883 10.3013 58.7829C5.81954 46.6458 7.61127 35.1033 14.5688 24.165ZM53.897 46.0221C54.0088 42.3451 51.1176 38.4817 46.3624 38.4517C41.7173 38.4217 38.8101 42.1667 38.7446 45.88C38.6712 50.0544 42.2795 53.4156 46.185 53.4835C50.4915 53.5561 53.9897 50.0054 53.897 46.0221M61.7604 46.0614C61.8323 54.1433 55.3471 61.3363 46.3206 61.3331C37.3451 61.33 30.8615 54.0738 30.8807 45.9382C30.9014 37.8579 37.3163 30.6633 46.3429 30.6665C55.3168 30.6696 61.8723 37.9258 61.7604 46.0614" fill="#81CCAB"/>
</svg>
