<svg width="87" height="15" viewBox="0 0 87 15" fill="none" xmlns="http://www.w3.org/2000/svg">
<path d="M11.2148 7.09326L16.752 14.5737H11.8008L7.6895 9.03662H7.6113V14.5737H3.4707V0.481934H7.6113V5.93115H7.6895L12.0449 0.481934H16.4883L11.2148 7.09326Z" fill="#81CCAB"/>
<path d="M30.639 14.5737H26.498V3.76318H23.432L23.197 8.71436C23.031 12.2593 21.791 14.73 18.4414 14.73C17.748 14.73 17.2109 14.6323 17.0059 14.5737V10.9897C17.1719 11.019 17.4355 11.0776 17.7871 11.0776C19.0664 11.0776 19.3594 9.90576 19.4277 8.39209L19.7598 0.481934H30.639V14.5737Z" fill="#81CCAB"/>
<path d="M41.9861 14.5737V6.73193H41.9081L36.7321 14.5737H32.7871V0.481934H36.9281V8.32373H37.0061L42.1821 0.481934H46.1271V14.5737H41.9861Z" fill="#81CCAB"/>
<path d="M58.2169 11.2827V14.5737H48.2749V0.481934H58.2169V3.77295H52.4159V6.04834H57.8549V9.01709H52.4159V11.2827H58.2169Z" fill="#81CCAB"/>
<path d="M73.6072 14.5737H69.4672V9.12451H64.5062V14.5737H60.3652V0.481934H64.5062V5.8335H69.4672V0.481934H73.6072V14.5737Z" fill="#81CCAB"/>
<path d="M83.0698 14.5737H78.9297V3.77295H75.2188V0.481934H86.7808V3.77295H83.0698V14.5737Z" fill="#81CCAB"/>
</svg>
